<svg viewBox="0 0 24 24" xmlns="http://www.w3.org/2000/svg"><defs><linearGradient id="gc" x1="0%" y1="0%" x2="100%" y2="100%"><stop offset="0%" style="stop-color:#21A038"/><stop offset="100%" style="stop-color:#2C9F45"/></linearGradient></defs><circle cx="12" cy="12" r="12" fill="url(#gc)"/><path d="M12 4.5a7.5 7.5 0 0 0-6.5 11.25L5 18.5l2.85-.6A7.5 7.5 0 1 0 12 4.5zm0 13.5a6 6 0 0 1-3.09-.86l-.22-.13-2.28.6.6-2.2-.14-.23A6 6 0 1 1 12 18z" fill="#fff"/><path d="M15.93 13.74c-.21-.1-1.23-.61-1.42-.68-.19-.07-.33-.1-.47.1-.14.21-.54.68-.66.82-.12.14-.24.16-.45.05-.21-.1-.88-.32-1.68-1.03-.62-.55-1.04-1.23-1.16-1.44-.12-.21-.01-.32.09-.42.09-.09.21-.24.31-.36.1-.12.14-.21.21-.35.07-.14.03-.26-.02-.36-.05-.1-.47-1.13-.64-1.55-.17-.41-.34-.35-.47-.36h-.4c-.14 0-.36.05-.55.26-.19.21-.72.7-.72 1.71s.74 1.98.84 2.12c.1.14 1.46 2.23 3.53 3.12.49.21.88.34 1.18.44.5.16.95.14 1.31.08.4-.06 1.23-.5 1.4-.99.17-.49.17-.9.12-.99-.05-.09-.19-.14-.4-.24z" fill="#fff"/></svg>
