<svg viewBox="0 0 24 24" xmlns="http://www.w3.org/2000/svg"><path d="M12 0C5.373 0 0 5.373 0 12s5.373 12 12 12 12-5.373 12-12S18.627 0 12 0zm.15 4.8c2.34 0 4.15.78 5.43 2.34 1.08 1.32 1.62 3.06 1.62 5.22v.54c0 .18-.06.33-.18.45-.12.12-.27.18-.45.18h-8.04v.18c.06.96.36 1.71.9 2.25.54.54 1.26.81 2.16.81.66 0 1.2-.12 1.62-.36.42-.24.78-.54 1.08-.9.12-.12.27-.18.45-.18h2.16c.18 0 .33.06.42.18.12.12.15.27.12.42-.24.84-.63 1.56-1.17 2.16-.54.6-1.2 1.08-1.98 1.41-.78.36-1.68.54-2.7.54-1.38 0-2.55-.3-3.51-.9-.96-.6-1.68-1.44-2.16-2.52-.48-1.08-.72-2.34-.72-3.78 0-1.38.24-2.61.72-3.69.48-1.08 1.2-1.92 2.16-2.52.96-.6 2.13-.9 3.51-.9zm0 2.7c-.84 0-1.53.27-2.07.81-.54.54-.84 1.29-.9 2.25v.12h5.82v-.12c-.06-.96-.36-1.71-.87-2.25-.54-.54-1.2-.81-1.98-.81z" fill="#F55036"/></svg>
