<svg viewBox="0 0 24 24" xmlns="http://www.w3.org/2000/svg"><rect x="0" y="0" width="5.14" height="5.14" fill="#F7D046"/><rect x="9.43" y="0" width="5.14" height="5.14" fill="#F7D046"/><rect x="18.86" y="0" width="5.14" height="5.14" fill="#F7D046"/><rect x="0" y="6.29" width="5.14" height="5.14" fill="#F2A73B"/><rect x="4.71" y="6.29" width="5.14" height="5.14" fill="#F2A73B"/><rect x="14.14" y="6.29" width="5.14" height="5.14" fill="#F2A73B"/><rect x="18.86" y="6.29" width="5.14" height="5.14" fill="#F2A73B"/><rect x="0" y="12.57" width="5.14" height="5.14" fill="#EF8535"/><rect x="4.71" y="12.57" width="5.14" height="5.14" fill="#EF8535"/><rect x="9.43" y="12.57" width="5.14" height="5.14" fill="#EF8535"/><rect x="14.14" y="12.57" width="5.14" height="5.14" fill="#EF8535"/><rect x="18.86" y="12.57" width="5.14" height="5.14" fill="#EF8535"/><rect x="0" y="18.86" width="5.14" height="5.14" fill="#EB5829"/><rect x="9.43" y="18.86" width="5.14" height="5.14" fill="#EB5829"/><rect x="18.86" y="18.86" width="5.14" height="5.14" fill="#EB5829"/></svg>
